<mxfile host="app.diagrams.net" modified="2024-07-23T02:41:45.115Z" agent="Mozilla/5.0 (Macintosh; Intel Mac OS X 10_15_7) AppleWebKit/537.36 (KHTML, like Gecko) Chrome/126.0.0.0 Safari/537.36 Edg/126.0.0.0" version="24.7.1" etag="QNV1jVz-EdHbsqZye_l8" type="github">
  <diagram name="第 1 页" id="RDpvD_mBrIa01KDGyiUF">
    <mxGraphModel>
      <root>
        <mxCell id="0" />
        <mxCell id="1" parent="0" />
      </root>
    </mxGraphModel>
  </diagram>
</mxfile>
